<svg width="16" height="16" viewBox="0 0 16 16" fill="none" xmlns="http://www.w3.org/2000/svg">
<path d="M2.86664 2.8667H10.3333V3.80004H2.86664V2.8667ZM2.86664 4.73338H10.3333V5.6667H2.86664V4.73338ZM2.86664 6.60004H10.3333V7.53338H2.86664V6.60004ZM2.86664 8.4667H3.79998V9.40004H2.86664V8.4667ZM2.86664 10.3334H3.79998V11.2667H2.86664V10.3334ZM7.37463 12.4894H8.30797L8.46663 13.1334H9.06397L8.13063 10.3334H7.53331L6.59997 13.1334H7.18797L7.37463 12.4894ZM7.78532 11.052C7.79345 10.9745 7.79345 10.8963 7.78532 10.8187C7.77682 10.8994 7.77682 10.9807 7.78532 11.0614L8.07465 11.9947H7.53332L7.78532 11.052ZM10.4546 13.1334C10.7057 13.1423 10.9553 13.0911 11.1826 12.984V12.452C10.9954 12.5697 10.7784 12.6312 10.5573 12.6294C10.4488 12.6346 10.3406 12.6156 10.2405 12.5736C10.1403 12.5316 10.0509 12.4677 9.97862 12.3867C9.82877 12.2066 9.75214 11.9767 9.76396 11.7427C9.7499 11.5011 9.83021 11.2635 9.98796 11.08C10.0626 10.9964 10.1549 10.9303 10.2582 10.8868C10.3615 10.8432 10.4733 10.8231 10.5853 10.828C10.7924 10.8241 10.9963 10.8791 11.1733 10.9867V10.4267C10.9734 10.3527 10.7611 10.3178 10.548 10.324C10.3724 10.3242 10.1989 10.3608 10.0382 10.4315C9.87759 10.5022 9.73335 10.6054 9.61462 10.7347C9.35626 11.0203 9.21904 11.3951 9.23196 11.78C9.22453 12.122 9.34426 12.4546 9.56796 12.7134C9.6772 12.8426 9.81286 12.947 9.96579 13.0194C10.1187 13.0919 10.2854 13.1307 10.4546 13.1334ZM13.1333 12.648H12.1813V10.3334H11.6306V13.1334H13.1333V12.648Z" fill="#52C41A"/>
<path d="M12.2 8.46666V1H1V15H15V8.46666H12.2ZM1.93334 14.0667V1.93334H11.2667V8.46666H4.73334V14.0667H1.93334ZM14.0667 14.0667H5.66666V9.4H14.0667V14.0667Z" fill="#52C41A"/>
</svg>
