<svg width="16" height="16" viewBox="0 0 16 16" fill="none" xmlns="http://www.w3.org/2000/svg">
<path d="M4.82969 8.66094C4.74532 8.84219 4.74532 9.05 4.82969 9.22969C5.52032 10.6875 6.5875 11.4375 8.00782 11.4375C9.42813 11.4375 10.4953 10.6859 11.1859 9.22969C11.2703 9.05 11.2703 8.84219 11.1875 8.6625L11.1844 8.65938C10.4953 7.20313 9.42813 6.45312 8.00782 6.45312C6.5875 6.45312 5.52032 7.20469 4.82969 8.66094ZM8.00782 7.45312C8.97813 7.45312 9.68594 7.92188 10.2125 8.94531C9.6875 9.96875 8.97813 10.4375 8.00782 10.4375C7.0375 10.4375 6.32969 9.96875 5.80313 8.94531C6.32969 7.92188 7.0375 7.45312 8.00782 7.45312Z" fill="#52C41A"/>
<path d="M7.14062 8.95312C7.14062 9.18519 7.23281 9.40775 7.39691 9.57184C7.561 9.73594 7.78356 9.82812 8.01562 9.82812C8.24769 9.82812 8.47025 9.73594 8.63434 9.57184C8.79844 9.40775 8.89062 9.18519 8.89062 8.95312C8.89062 8.72106 8.79844 8.4985 8.63434 8.33441C8.47025 8.17031 8.24769 8.07812 8.01562 8.07812C7.78356 8.07812 7.561 8.17031 7.39691 8.33441C7.23281 8.4985 7.14062 8.72106 7.14062 8.95312Z" fill="#52C41A"/>
<path d="M13.75 4.6625H8.14062L6.30781 2.90937C6.28438 2.8875 6.25313 2.875 6.22188 2.875H2.25C1.97344 2.875 1.75 3.09844 1.75 3.375V12.625C1.75 12.9016 1.97344 13.125 2.25 13.125H13.75C14.0266 13.125 14.25 12.9016 14.25 12.625V5.1625C14.25 4.88594 14.0266 4.6625 13.75 4.6625ZM13.125 12H2.875V4H5.82031L7.68906 5.7875H13.125V12Z" fill="#52C41A"/>
</svg>
