<svg width="16" height="16" viewBox="0 0 16 16" fill="none" xmlns="http://www.w3.org/2000/svg">
<path d="M8.0362 0.756592C8.99673 0.756592 9.91793 1.13816 10.5971 1.81737C11.2763 2.49657 11.6579 3.41777 11.6579 4.37831V6.79279H13.167C13.392 6.7928 13.609 6.87664 13.7757 7.02797C13.9423 7.1793 14.0466 7.38726 14.0682 7.6113L14.0724 7.69822V8.00003C14.0722 8.15388 14.0133 8.30186 13.9077 8.41373C13.8021 8.5256 13.6577 8.59292 13.5041 8.60194C13.3506 8.61096 13.1993 8.56099 13.0813 8.46224C12.9634 8.36349 12.8875 8.22342 12.8694 8.07065L12.8652 8.00003H3.20724V14.0362H7.43559C7.58344 14.0362 7.72614 14.0905 7.83662 14.1888C7.94711 14.287 8.01769 14.4224 8.03499 14.5692L8.03921 14.6398C8.03919 14.7877 7.98491 14.9304 7.88667 15.0409C7.78842 15.1514 7.65305 15.2219 7.50622 15.2392L7.43559 15.2435H2.90543C2.68035 15.2435 2.46334 15.1596 2.29673 15.0083C2.13011 14.857 2.02583 14.649 2.00423 14.425L2 14.338V7.69822C2.00001 7.47314 2.08385 7.25613 2.23518 7.08952C2.38651 6.9229 2.59447 6.81862 2.81851 6.79701L2.90543 6.79279H4.41448V4.37831C4.41444 3.44126 4.7776 2.54067 5.42763 1.86576C6.07767 1.19085 6.96399 0.794146 7.90038 0.759006L8.0362 0.756592ZM8.0362 1.96383C7.39584 1.96383 6.7817 2.21821 6.3289 2.67102C5.8761 3.12382 5.62172 3.73795 5.62172 4.37831V6.79279H10.4507V4.37831C10.4507 3.75885 10.2126 3.16309 9.78565 2.71424C9.35872 2.2654 8.7756 1.99782 8.15692 1.96685L8.0362 1.96383Z" fill="#52C41A"/>
<path d="M10.4506 12.2253C10.4506 12.4654 10.546 12.6957 10.7158 12.8655C10.8856 13.0353 11.1159 13.1307 11.356 13.1307C11.5961 13.1307 11.8264 13.0353 11.9962 12.8655C12.166 12.6957 12.2614 12.4654 12.2614 12.2253C12.2614 11.9851 12.166 11.7548 11.9962 11.585C11.8264 11.4152 11.5961 11.3198 11.356 11.3198C11.1159 11.3198 10.8856 11.4152 10.7158 11.585C10.546 11.7548 10.4506 11.9851 10.4506 12.2253Z" fill="#52C41A"/>
<path d="M13.0673 9.20728H9.64477L7.94739 12.2254L9.64477 15.2435H13.0673L14.7647 12.2254L13.0673 9.20728ZM12.3611 10.4145L13.3794 12.2254L12.3605 14.0362H10.351L9.33209 12.2254L10.3504 10.4145H12.3611Z" fill="#52C41A"/>
</svg>
