<svg width="20" height="20" viewBox="0 0 20 20" fill="none" xmlns="http://www.w3.org/2000/svg">
<path d="M13.4375 6.09375V5.15625C13.4375 5.07031 13.3672 5 13.2812 5H5.78125C5.69531 5 5.625 5.07031 5.625 5.15625V6.09375C5.625 6.17969 5.69531 6.25 5.78125 6.25H13.2812C13.3672 6.25 13.4375 6.17969 13.4375 6.09375ZM5.78125 7.8125C5.69531 7.8125 5.625 7.88281 5.625 7.96875V8.90625C5.625 8.99219 5.69531 9.0625 5.78125 9.0625H9.375C9.46094 9.0625 9.53125 8.99219 9.53125 8.90625V7.96875C9.53125 7.88281 9.46094 7.8125 9.375 7.8125H5.78125ZM8.59375 16.6406H4.0625V2.89062H15V9.60938C15 9.69531 15.0703 9.76562 15.1562 9.76562H16.25C16.3359 9.76562 16.4062 9.69531 16.4062 9.60938V2.10938C16.4062 1.76367 16.127 1.48438 15.7812 1.48438H3.28125C2.93555 1.48438 2.65625 1.76367 2.65625 2.10938V17.4219C2.65625 17.7676 2.93555 18.0469 3.28125 18.0469H8.59375C8.67969 18.0469 8.75 17.9766 8.75 17.8906V16.7969C8.75 16.7109 8.67969 16.6406 8.59375 16.6406ZM17.2988 17.6465L15.4766 15.8242C15.9121 15.248 16.1719 14.5293 16.1719 13.75C16.1719 11.8516 14.6328 10.3125 12.7344 10.3125C10.8359 10.3125 9.29687 11.8516 9.29687 13.75C9.29687 15.6484 10.8359 17.1875 12.7344 17.1875C13.4336 17.1875 14.082 16.9785 14.625 16.6211L16.4746 18.4707C16.5059 18.502 16.5449 18.5156 16.584 18.5156C16.623 18.5156 16.6641 18.5 16.6934 18.4707L17.2988 17.8652C17.3132 17.8509 17.3247 17.8339 17.3325 17.8151C17.3403 17.7963 17.3443 17.7762 17.3443 17.7559C17.3443 17.7355 17.3403 17.7154 17.3325 17.6966C17.3247 17.6779 17.3132 17.6608 17.2988 17.6465ZM12.7344 15.9375C11.5254 15.9375 10.5469 14.959 10.5469 13.75C10.5469 12.541 11.5254 11.5625 12.7344 11.5625C13.9434 11.5625 14.9219 12.541 14.9219 13.75C14.9219 14.959 13.9434 15.9375 12.7344 15.9375Z" fill="#52C41A"/>
</svg>
