<svg width="20" height="20" viewBox="0 0 20 20" fill="none" xmlns="http://www.w3.org/2000/svg">
<path d="M13.4375 6.09375V5.15625C13.4375 5.07031 13.3672 5 13.2812 5H5.78125C5.69531 5 5.625 5.07031 5.625 5.15625V6.09375C5.625 6.17969 5.69531 6.25 5.78125 6.25H13.2812C13.3672 6.25 13.4375 6.17969 13.4375 6.09375ZM5.78125 7.8125C5.69531 7.8125 5.625 7.88281 5.625 7.96875V8.90625C5.625 8.99219 5.69531 9.0625 5.78125 9.0625H9.375C9.46094 9.0625 9.53125 8.99219 9.53125 8.90625V7.96875C9.53125 7.88281 9.46094 7.8125 9.375 7.8125H5.78125ZM8.59375 16.6406H4.0625V2.89062H15V9.60938C15 9.69531 15.0703 9.76562 15.1562 9.76562H16.25C16.3359 9.76562 16.4062 9.69531 16.4062 9.60938V2.10938C16.4062 1.76367 16.127 1.48438 15.7812 1.48438H3.28125C2.93555 1.48438 2.65625 1.76367 2.65625 2.10938V17.4219C2.65625 17.7676 2.93555 18.0469 3.28125 18.0469H8.59375C8.67969 18.0469 8.75 17.9766 8.75 17.8906V16.7969C8.75 16.7109 8.67969 16.6406 8.59375 16.6406Z" fill="#52C41A"/>
<path d="M17.8944 16.0169L17.2766 15.5168C17.3058 15.3472 17.3209 15.174 17.3209 15.0007C17.3209 14.8275 17.3058 14.6543 17.2766 14.4846L17.8944 13.9846C17.941 13.9468 17.9743 13.8965 17.99 13.8404C18.0056 13.7842 18.0029 13.7249 17.9821 13.6703L17.9736 13.6471C17.8035 13.1971 17.5488 12.7799 17.2219 12.4157L17.2049 12.397C17.1652 12.3528 17.1124 12.3211 17.0533 12.3059C16.9942 12.2908 16.9316 12.293 16.8738 12.3121L16.107 12.5702C15.8241 12.3505 15.5081 12.1773 15.1667 12.0559L15.0186 11.2969C15.0075 11.2398 14.9782 11.1872 14.9347 11.1463C14.8913 11.1053 14.8357 11.0778 14.7753 11.0674L14.7498 11.063C14.2584 10.979 13.7416 10.979 13.2502 11.063L13.2247 11.0674C13.1643 11.0778 13.1087 11.1053 13.0653 11.1463C13.0218 11.1872 12.9925 11.2398 12.9814 11.2969L12.8324 12.0594C12.4936 12.1809 12.1782 12.354 11.8986 12.572L11.1262 12.3121C11.0684 12.2928 11.0058 12.2906 10.9467 12.3057C10.8875 12.3209 10.8347 12.3527 10.7951 12.397L10.7781 12.4157C10.4515 12.7801 10.1969 13.1972 10.0264 13.6471L10.0179 13.6703C9.97548 13.7819 10.0104 13.9069 10.1056 13.9846L10.731 14.49C10.7017 14.6578 10.6876 14.8293 10.6876 14.9998C10.6876 15.1713 10.7017 15.3427 10.731 15.5097L10.1056 16.0151C10.059 16.0528 10.0257 16.1031 10.01 16.1593C9.99435 16.2154 9.99711 16.2748 10.0179 16.3294L10.0264 16.3526C10.1971 16.8026 10.4499 17.2178 10.7781 17.5839L10.7951 17.6027C10.8348 17.6468 10.8876 17.6786 10.9467 17.6937C11.0058 17.7089 11.0684 17.7067 11.1262 17.6875L11.8986 17.4277C12.1797 17.6464 12.4938 17.8197 12.8324 17.9402L12.9814 18.7028C12.9925 18.7599 13.0218 18.8124 13.0653 18.8534C13.1087 18.8944 13.1643 18.9219 13.2247 18.9322L13.2502 18.9367C13.7461 19.0211 14.2539 19.0211 14.7498 18.9367L14.7753 18.9322C14.8357 18.9219 14.8913 18.8944 14.9347 18.8534C14.9782 18.8124 15.0075 18.7599 15.0186 18.7028L15.1667 17.9438C15.508 17.8227 15.8257 17.6489 16.107 17.4295L16.8738 17.6875C16.9316 17.7069 16.9942 17.7091 17.0533 17.6939C17.1125 17.6788 17.1653 17.647 17.2049 17.6027L17.2219 17.5839C17.5501 17.2169 17.8029 16.8026 17.9736 16.3526L17.9821 16.3294C18.0245 16.2196 17.9896 16.0946 17.8944 16.0169ZM16.6069 14.59C16.6305 14.7248 16.6428 14.8632 16.6428 15.0016C16.6428 15.14 16.6305 15.2784 16.6069 15.4133L16.5447 15.7713L17.2492 16.3419C17.1424 16.5748 17.0076 16.7954 16.8474 16.9991L15.9722 16.7053L15.676 16.9357C15.4506 17.1107 15.1997 17.2482 14.9281 17.3446L14.5687 17.4723L14.3999 18.3385C14.1335 18.367 13.8646 18.367 13.5982 18.3385L13.4294 17.4705L13.0729 17.3411C12.8041 17.2446 12.5541 17.1071 12.3306 16.933L12.0344 16.7017L11.1535 16.9982C10.9932 16.7937 10.8592 16.5732 10.7517 16.341L11.4638 15.7651L11.4025 15.4079C11.3799 15.2749 11.3676 15.1373 11.3676 15.0016C11.3676 14.865 11.3789 14.7284 11.4025 14.5953L11.4638 14.2382L10.7517 13.6622C10.8583 13.4292 10.9932 13.2095 11.1535 13.005L12.0344 13.3015L12.3306 13.0702C12.5541 12.8961 12.8041 12.7586 13.0729 12.6622L13.4303 12.5345L13.5992 11.6666C13.8642 11.638 14.1349 11.638 14.4008 11.6666L14.5697 12.5327L14.929 12.6604C15.1997 12.7568 15.4515 12.8943 15.677 13.0693L15.9731 13.2997L16.8484 13.0059C17.0087 13.2104 17.1427 13.431 17.2502 13.6631L16.5456 14.2337L16.6069 14.59ZM14.0009 13.3408C13.0842 13.3408 12.341 14.0444 12.341 14.9123C12.341 15.7802 13.0842 16.4839 14.0009 16.4839C14.9177 16.4839 15.6609 15.7802 15.6609 14.9123C15.6609 14.0444 14.9177 13.3408 14.0009 13.3408ZM14.7479 15.6195C14.65 15.7125 14.5335 15.7863 14.4053 15.8366C14.2771 15.8868 14.1397 15.9126 14.0009 15.9124C13.7189 15.9124 13.4539 15.8079 13.2539 15.6195C13.1557 15.5268 13.0778 15.4165 13.0247 15.2952C12.9716 15.1738 12.9444 15.0437 12.9446 14.9123C12.9446 14.6453 13.0549 14.3944 13.2539 14.2051C13.4539 14.0158 13.7189 13.9123 14.0009 13.9123C14.283 13.9123 14.548 14.0158 14.7479 14.2051C14.8462 14.2979 14.9241 14.4081 14.9772 14.5295C15.0303 14.6509 15.0575 14.781 15.0573 14.9123C15.0573 15.1793 14.9469 15.4302 14.7479 15.6195Z" fill="#52C41A" stroke="#52C41A" stroke-width="0.2"/>
</svg>
